<svg viewBox="0 0 15 16" xmlns="http://www.w3.org/2000/svg">
  <path d="M7.27552 8.81162C6.96691 8.81162 6.7168 9.06174 6.7168 9.37034V13.0394C6.7168 13.348 6.96691 13.5981 7.27552 13.5981C7.58412 13.5981 7.83424 13.3482 7.83424 13.0394V9.37034C7.83424 9.06174 7.58412 8.81162 7.27552 8.81162Z"></path>
  <path d="M10.1603 8.81162C9.85168 8.81162 9.60156 9.06174 9.60156 9.37034V13.0394C9.60156 13.348 9.85168 13.5981 10.1603 13.5981C10.4689 13.5981 10.719 13.3482 10.719 13.0394V9.37034C10.719 9.06174 10.4689 8.81162 10.1603 8.81162Z"></path>
  <path d="M4.38685 8.8116C4.07824 8.8116 3.82812 9.06171 3.82812 9.37032V13.0394C3.82812 13.348 4.07824 13.5981 4.38685 13.5981C4.69545 13.5981 4.94557 13.3482 4.94557 13.0394V9.37032C4.94557 9.06171 4.69545 8.8116 4.38685 8.8116Z"></path>
  <path d="M9.604 2.24161L12.4225 6.08064C12.5655 6.27535 12.7951 6.3803 13.0317 6.42901C13.9972 6.62778 14.6719 7.56502 14.4988 8.58087L13.4702 14.6191C13.3452 15.3525 12.7097 15.8889 11.9658 15.8889H2.68129C1.94644 15.8889 1.31596 15.3651 1.18117 14.6428L0.0304055 8.47516C-0.170593 7.3979 0.650217 6.40048 1.74603 6.3904H5.50805C5.50805 6.3904 5.90876 6.39039 5.98493 6.78229C6.03956 7.50787 5.50805 7.50787 5.50805 7.50787H2.12962C1.54026 7.50787 1.09196 8.03707 1.18885 8.61842L2.08152 13.9745C2.15817 14.4343 2.55606 14.7714 3.0223 14.7714H11.5229C11.9891 14.7714 12.387 14.4343 12.4636 13.9745L13.3563 8.61842C13.4532 8.03707 13.0049 7.50787 12.4156 7.50787H12.1843C11.7858 7.50787 11.7074 7.25917 11.2637 6.3904L8.7033 2.90295L7.57457 1.41894C7.39067 1.17716 7.02607 1.17987 6.84579 1.42435L4.04149 5.22728C3.88518 5.43926 3.58663 5.48438 3.37466 5.32807C3.16269 5.17176 3.11756 4.87321 3.27387 4.66124L6.26451 0.50497C6.73621 -0.150585 7.70458 -0.171405 8.20402 0.46327L9.57374 2.20386C9.58426 2.21589 9.59436 2.22848 9.604 2.24161Z"></path>
</svg>