<svg
  viewBox="0 0 19 21"
  xmlns="http://www.w3.org/2000/svg"
>
  <path
    d="M9.02325 11.9298C8.64038 11.9298 8.33008 12.2401 8.33008 12.623V17.175C8.33008 17.5579 8.64038 17.8682 9.02325 17.8682C9.40612 17.8682 9.71643 17.5581 9.71643 17.175V12.623C9.71643 12.2401 9.40612 11.9298 9.02325 11.9298Z"
  ></path>
  <path
    d="M12.6033 11.9298C12.2205 11.9298 11.9102 12.2401 11.9102 12.623V17.175C11.9102 17.5579 12.2205 17.8682 12.6033 17.8682C12.9862 17.8682 13.2965 17.5581 13.2965 17.175V12.623C13.2965 12.2401 12.9862 11.9298 12.6033 11.9298Z"
  ></path>
  <path
    d="M5.44122 11.9298C5.05835 11.9298 4.74805 12.2401 4.74805 12.623V17.175C4.74805 17.5579 5.05835 17.8682 5.44122 17.8682C5.82409 17.8682 6.13439 17.5581 6.13439 17.175V12.623C6.13439 12.2401 5.82409 11.9298 5.44122 11.9298Z"
  ></path>
  <path
    d="M11.9152 3.77885L15.3944 8.51779C15.5828 8.77441 15.8857 8.9119 16.1967 8.98009C17.379 9.23934 18.2008 10.3935 17.9879 11.6436L16.7117 19.135C16.5567 20.0448 15.7683 20.7103 14.8454 20.7103H3.32653C2.41484 20.7103 1.63263 20.0605 1.46542 19.1643L0.0377224 11.5125C-0.211646 10.176 0.806688 8.93853 2.1662 8.92602H6.83354C6.83354 8.92602 7.33068 8.92602 7.42517 9.41223C7.49295 10.3124 6.83354 10.3124 6.83354 10.3124H2.64211C1.91092 10.3124 1.35473 10.969 1.47494 11.6902L2.58243 18.3352C2.67752 18.9057 3.17117 19.3239 3.7496 19.3239H14.2958C14.8742 19.3239 15.3679 18.9057 15.4629 18.3352L16.5704 11.6902C16.6906 10.969 16.1345 10.3124 15.4033 10.3124H15.1164C14.622 10.3124 14.5248 10.0039 13.9742 8.92602L10.7977 4.59934L9.42579 2.79559C9.18343 2.47695 8.70292 2.48051 8.46532 2.80272L5.01406 7.48301C4.82013 7.74599 4.44974 7.80198 4.18676 7.60805C3.92377 7.41413 3.86779 7.04373 4.06172 6.78075L7.69925 1.72545C8.32091 0.861489 9.59713 0.834049 10.2553 1.67049L11.8776 3.73201C11.8907 3.74694 11.9032 3.76256 11.9152 3.77885Z"
  ></path>
</svg>