<svg xmlns="http://www.w3.org/2000/svg" width="91" height="74" viewBox="0 0 91 74" fill="none"><script xmlns=""/>
<circle cx="56" cy="37" r="35" fill="#EC4C37" fill-opacity="0.3"/>
<path d="M12.3698 13.7698C11.8499 13.7698 11.4287 14.191 11.4287 14.7108C11.4287 15.2307 11.8499 15.6519 12.3698 15.6519H13.6627C14.1825 15.6519 14.6037 15.2307 14.6037 14.7108C14.6037 14.191 14.1825 13.7698 13.6627 13.7698H12.3698Z" fill="#3F3F3F"/>
<path d="M18.7583 13.7698C18.2385 13.7698 17.8173 14.191 17.8173 14.7108C17.8173 15.2307 18.2385 15.6519 18.7583 15.6519H20.0513C20.5712 15.6519 20.9924 15.2307 20.9924 14.7108C20.9924 14.191 20.5712 13.7698 20.0513 13.7698H18.7583Z" fill="#3F3F3F"/>
<path d="M26.4399 15.6519C26.9597 15.6519 27.3809 15.2307 27.3809 14.7108C27.3809 14.191 26.9597 13.7698 26.4399 13.7698H25.1469C24.627 13.7698 24.2058 14.191 24.2058 14.7108C24.2058 15.2307 24.627 15.6519 25.1469 15.6519H26.4399Z" fill="#3F3F3F"/>
<path d="M51.1839 42.7553C51.5513 43.1227 52.1471 43.123 52.5147 42.7554C52.8823 42.3879 52.8823 41.792 52.5148 41.4246L35.1947 24.1011C34.8272 23.7335 34.2313 23.7336 33.8639 24.101C33.4963 24.4685 33.4963 25.0644 33.8638 25.4318L34.1657 25.7337L32.0731 30.8066C31.7042 30.5247 31.175 30.5514 30.8377 30.8887C30.4701 31.2562 30.4701 31.8521 30.8376 32.2195L31.2997 32.6816L29.6694 36.6336L22.6043 43.6973C21.5643 44.7372 21.5642 46.4292 22.604 47.4692L22.7311 47.5963L22.0658 48.2615L22.0634 48.2591C21.6959 47.8916 21.1 47.8915 20.7326 48.259C20.365 48.6265 20.365 49.2224 20.7325 49.5897L20.7949 49.6521C19.6375 51.379 19.8204 53.7442 21.3448 55.2688C22.2116 56.1357 23.3499 56.5691 24.4887 56.5691C25.3526 56.5691 26.2162 56.3189 26.9614 55.8197L27.0238 55.882C27.2076 56.0659 27.4484 56.1577 27.6893 56.1577C27.9301 56.1577 28.171 56.0659 28.3547 55.8822C28.7223 55.5146 28.7223 54.9188 28.3548 54.5514L28.3524 54.549L29.0177 53.8839L29.1447 54.011C29.6648 54.5312 30.3476 54.7912 31.0308 54.7912C31.7135 54.7912 32.3966 54.5312 32.9164 54.0113L33.0468 53.881L35.5356 56.3701C35.9022 56.737 36.4981 56.7384 36.8664 56.3703C37.2339 56.0029 37.234 55.407 36.8665 55.0395L34.3777 52.5502L37.358 49.5704L39.3051 51.518C39.3197 51.5325 39.3244 51.5544 39.3175 51.5736L38.8324 52.9139C38.5781 53.6168 38.7553 54.4124 39.2838 54.9408L42.0093 57.6669C42.2507 57.9084 42.2507 58.3013 42.0092 58.5427L41.627 58.9248C41.3856 59.1662 40.9925 59.1662 40.7512 58.9245L39.5269 57.7002C39.1593 57.3328 38.5635 57.3328 38.196 57.7002C37.8285 58.0678 37.8285 58.6636 38.196 59.0311L39.4203 60.2553C40.3951 61.2304 41.9823 61.2313 42.9578 60.2557L43.34 59.8736C44.3153 58.8984 44.3155 57.3114 43.3404 56.3361L40.6148 53.6099C40.6002 53.5955 40.5955 53.5737 40.6024 53.5545L41.0875 52.214C41.3417 51.5111 41.1646 50.7155 40.6361 50.1871L38.689 48.2396L39.9817 46.9473L43.9336 45.318L44.3958 45.7802C44.7632 46.1476 45.3591 46.148 45.7266 45.7803C46.064 45.4431 46.0909 44.9137 45.8089 44.5448L50.8821 42.4533L51.1839 42.7553ZM28.99 42.5387C28.9899 42.5388 28.9899 42.5388 28.99 42.5387L27.3454 44.1829C27.109 44.4193 26.7274 44.4184 26.4918 44.1828L25.6364 43.3273L28.1346 40.8296L28.99 41.6854C29.2264 41.9215 29.2255 42.3032 28.99 42.5387ZM22.6756 53.9381C22.1915 53.4539 21.9249 52.81 21.925 52.1253C21.925 51.7399 22.0123 51.3686 22.1727 51.0303L25.5825 54.4407C24.6314 54.8888 23.4606 54.7233 22.6756 53.9381ZM27.6867 52.5528L27.0214 53.218L23.3965 49.5924L24.0617 48.9272C25.3295 50.1953 26.4188 51.2848 27.6867 52.5528ZM30.4753 52.6802C28.6887 50.8933 24.9658 47.1695 23.9349 46.1384C23.629 45.8324 23.629 45.3344 23.935 45.0283L24.3054 44.658L25.1609 45.5136C26.1312 46.4841 27.7049 46.4856 28.6763 45.514L30.3206 43.8697C31.2922 42.8985 31.2926 41.326 30.321 40.3545L29.4655 39.4988L30.4677 38.4969L38.1182 46.1487L32.3827 51.8833C32.3822 51.8838 32.3817 51.8842 32.3813 51.8845C32.3809 51.8849 32.3805 51.8856 32.38 51.8859L31.5855 52.6803C31.2793 52.9865 30.7814 52.9862 30.4753 52.6802ZM39.6706 45.0397C38.7086 44.0774 32.5428 37.9106 31.577 36.9447L32.7408 34.1234L42.492 43.8765L39.6706 45.0397ZM44.3768 43.0993L33.5182 32.2388L35.6069 27.1754L49.4407 41.0117L44.3768 43.0993Z" fill="#3F3F3F"/>
<path d="M48.2004 27.0824L45.679 29.6038C45.3114 29.9714 45.3114 30.5672 45.679 30.9347C46.0467 31.3022 46.6423 31.3021 47.0099 30.9347L49.5313 28.4133C49.8988 28.0457 49.8988 27.4499 49.5313 27.0824C49.1638 26.7151 48.568 26.7151 48.2004 27.0824Z" fill="#3F3F3F"/>
<path d="M42.3559 26.8521V23.2864C42.3559 22.7666 41.9347 22.3453 41.4148 22.3453C40.895 22.3453 40.4738 22.7666 40.4738 23.2864V26.8521C40.4738 27.372 40.895 27.7932 41.4148 27.7932C41.9347 27.7932 42.3559 27.372 42.3559 26.8521Z" fill="#3F3F3F"/>
<path d="M48.7522 35.2274C48.7522 35.7473 49.1734 36.1685 49.6933 36.1685H53.259C53.7788 36.1685 54.2 35.7473 54.2 35.2274C54.2 34.7076 53.7788 34.2864 53.259 34.2864H49.6933C49.1735 34.2864 48.7522 34.7077 48.7522 35.2274Z" fill="#3F3F3F"/>
<path d="M20.3459 26.8521C20.3459 26.3323 19.9247 25.9111 19.4048 25.9111H11.3545C10.8347 25.9111 10.4135 26.3323 10.4135 26.8521C10.4135 27.372 10.8347 27.7932 11.3545 27.7932H19.4048C19.9245 27.7932 20.3459 27.372 20.3459 26.8521Z" fill="#3F3F3F"/>
<path d="M11.3545 30.6131C10.8347 30.6131 10.4135 31.0343 10.4135 31.5542C10.4135 32.074 10.8347 32.4952 11.3545 32.4952H16.8953C17.4152 32.4952 17.8364 32.074 17.8364 31.5542C17.8364 31.0343 17.4152 30.6131 16.8953 30.6131H11.3545Z" fill="#3F3F3F"/>
<path d="M62.2225 50.6395H48.866C48.3461 50.6395 47.9249 51.0607 47.9249 51.5805C47.9249 52.1004 48.3461 52.5216 48.866 52.5216H62.2225C62.7423 52.5216 63.1635 52.1004 63.1635 51.5805C63.1635 51.0607 62.7422 50.6395 62.2225 50.6395Z" fill="#3F3F3F"/>
<path d="M62.2226 54.7856H53.885C53.3652 54.7856 52.944 55.2068 52.944 55.7266C52.944 56.2465 53.3652 56.6677 53.885 56.6677H62.2226C62.7424 56.6677 63.1636 56.2465 63.1636 55.7266C63.1636 55.2068 62.7423 54.7856 62.2226 54.7856Z" fill="#3F3F3F"/>
<path d="M62.7999 9H25.1603C24.6405 9 24.2193 9.42122 24.2193 9.94106C24.2193 10.4609 24.6405 10.8821 25.1603 10.8821H62.8C65.3148 10.8821 67.3608 12.9281 67.3608 15.443V18.5396H6.88212V15.443C6.88212 12.9281 8.9281 10.8821 11.4429 10.8821H21.3977C21.9176 10.8821 22.3388 10.4609 22.3388 9.94106C22.3388 9.42122 21.9176 9 21.3977 9H11.4429C7.89018 9 5 11.8903 5 15.443V58.3513C5 61.9039 7.89018 64.7942 11.4429 64.7942H62.8C66.3526 64.7942 69.2429 61.904 69.2429 58.3513V56.0188C69.2429 55.4989 68.8216 55.0777 68.3018 55.0777C67.782 55.0777 67.3608 55.4989 67.3608 56.0188V58.3513C67.3608 60.8661 65.3148 62.9121 62.8 62.9121H11.4429C8.9281 62.9119 6.88212 60.866 6.88212 58.3512V20.4216H67.3606V52.256C67.3606 52.7759 67.7818 53.1971 68.3017 53.1971C68.8215 53.1971 69.2427 52.7759 69.2427 52.256V15.443C69.2427 11.8903 66.3526 9 62.7999 9Z" fill="#3F3F3F"/>
<script xmlns=""/><script xmlns=""/></svg>