<svg xmlns="http://www.w3.org/2000/svg" width="91" height="74" viewBox="0 0 91 74" fill="none"><script xmlns=""/>
<circle cx="56" cy="37" r="35" fill="#EC4C37" fill-opacity="0.3"/>
<path d="M28.7571 38.6207C28.2313 38.6207 27.805 39.0471 27.805 39.5729V41.9092H21.0765V35.1807H24.249C24.7749 35.1807 25.2012 34.7544 25.2012 34.2285C25.2012 33.7027 24.7749 33.2764 24.249 33.2764H21.013C19.998 33.2764 19.1722 34.1022 19.1722 35.1172V41.9727C19.1722 42.9877 19.998 43.8135 21.013 43.8135H27.8685C28.8834 43.8135 29.7093 42.9877 29.7093 41.9727V39.5729C29.7093 39.0471 29.283 38.6207 28.7571 38.6207ZM24.8851 9.76074C24.8851 9.2349 24.4587 8.80859 23.9329 8.80859C23.4071 8.80859 22.9808 9.2349 22.9808 9.76074C22.9808 10.2866 23.4071 10.7129 23.9329 10.7129C24.4587 10.7129 24.8851 10.2866 24.8851 9.76074ZM20.1243 8.80859C19.5985 8.80859 19.1722 9.2349 19.1722 9.76074C19.1722 10.2866 19.5985 10.7129 20.1243 10.7129C20.6502 10.7129 21.0765 10.2866 21.0765 9.76074C21.0765 9.2349 20.6502 8.80859 20.1243 8.80859ZM23.8126 36.742C23.4407 36.3701 22.8378 36.3701 22.4661 36.742C22.0942 37.1138 22.0942 37.7167 22.4661 38.0884L23.86 39.4824C24.1199 39.7421 24.4612 39.872 24.8025 39.872C25.1439 39.872 25.4853 39.742 25.745 39.4823L29.2086 36.0187C29.5804 35.6469 29.5804 35.044 29.2086 34.6722C28.8367 34.3004 28.2338 34.3004 27.8621 34.6722L24.8025 37.7318L23.8126 36.742ZM68.0479 40.2981C68.5738 40.2981 69 39.8717 69 39.3459V15.2248C69 12.5997 66.8644 10.4641 64.2393 10.4641H57.6364V7.47559C57.6364 6.11059 56.5258 5 55.1608 5H17.8392C16.4742 5 15.3636 6.11059 15.3636 7.47559V10.4641H8.76074C6.13561 10.4641 4 12.5997 4 15.2248V51.0789C4 53.704 6.13561 55.8397 8.76074 55.8397H31.0262L30.301 61.2295H29.2401C28.3591 61.2295 27.5794 61.8223 27.3439 62.6713L26.0029 67.5063C25.8371 68.1038 25.9574 68.7297 26.3327 69.2232C26.7081 69.7168 27.279 69.9999 27.8991 69.9999H45.1008C45.721 69.9999 46.292 69.7168 46.6673 69.2232C47.0426 68.7296 47.1628 68.1037 46.9971 67.5063L45.6561 62.6714C45.4207 61.8223 44.6411 61.2293 43.7598 61.2293H42.6989L41.9737 55.8395H64.2393C66.8644 55.8395 69 53.7039 69 51.0788V43.7891C69 43.2633 68.5738 42.837 68.0479 42.837C67.5219 42.837 67.0957 43.2633 67.0957 43.7891V51.0788C67.0957 52.6539 65.8142 53.9352 64.2393 53.9352H8.76074C7.18563 53.9352 5.9043 52.6539 5.9043 51.0788V15.2248C5.9043 13.6497 7.18563 12.3684 8.76074 12.3684H15.3636V14.2727H9.26855C8.46354 14.2727 7.80859 14.9276 7.80859 15.7326V48.6668C7.80859 49.4718 8.46354 50.1268 9.26855 50.1268H63.7314C64.5365 50.1268 65.1914 49.4718 65.1914 48.6668V15.7326C65.1914 14.9276 64.5365 14.2727 63.7314 14.2727H57.6364V12.3684H64.2393C65.8142 12.3684 67.0957 13.6497 67.0957 15.2248V39.3459C67.0957 39.8717 67.5219 40.2981 68.0479 40.2981ZM43.7599 63.1337C43.7884 63.1337 43.8135 63.1528 43.821 63.1801V63.1802L45.162 68.0154C45.1741 68.0461 45.1338 68.0993 45.1008 68.0957H27.8991C27.8663 68.0993 27.8255 68.0463 27.8379 68.0152L29.1789 63.1802C29.1865 63.1528 29.2116 63.1336 29.2401 63.1336H43.7599V63.1337ZM32.9477 55.8397H40.0524L40.7776 61.2295H32.2224L32.9477 55.8397ZM15.3636 48.2225H9.71289V16.177H15.3636V48.2225ZM55.7321 12.6172H27.863C27.3372 12.6172 26.9108 13.0435 26.9108 13.5693C26.9108 14.0952 27.3372 14.5215 27.863 14.5215H55.7321V48.2225H17.2679V14.5215H23.4196C23.9455 14.5215 24.3718 14.0952 24.3718 13.5693C24.3718 13.0435 23.9455 12.6172 23.4196 12.6172H17.2679V7.47559C17.2679 7.16062 17.5242 6.9043 17.8392 6.9043H55.1608C55.4758 6.9043 55.7321 7.16062 55.7321 7.47559V12.6172ZM63.2871 16.177V48.2225H57.6364V16.177H63.2871ZM23.8126 22.3963C23.4407 22.0244 22.8378 22.0244 22.4661 22.3963C22.0942 22.7681 22.0942 23.371 22.4661 23.7427L23.86 25.1367C24.1199 25.3964 24.4612 25.5263 24.8025 25.5263C25.1439 25.5263 25.4853 25.3963 25.745 25.1365L29.2086 21.673C29.5804 21.3012 29.5804 20.6983 29.2086 20.3265C28.8367 19.9547 28.2338 19.9547 27.8621 20.3265L24.8025 23.3861L23.8126 22.3963ZM27.7415 8.80859C27.2157 8.80859 26.7894 9.2349 26.7894 9.76074C26.7894 10.2866 27.2157 10.7129 27.7415 10.7129C28.2673 10.7129 28.6937 10.2866 28.6937 9.76074C28.6937 9.2349 28.2673 8.80859 27.7415 8.80859ZM28.7571 24.275C28.2313 24.275 27.805 24.7014 27.805 25.2272V27.5635H21.0765V20.835H24.249C24.7749 20.835 25.2012 20.4087 25.2012 19.8828C25.2012 19.357 24.7749 18.9307 24.249 18.9307H21.013C19.998 18.9307 19.1722 19.7565 19.1722 20.7715V27.627C19.1722 28.642 19.998 29.4678 21.013 29.4678H27.8685C28.8834 29.4678 29.7093 28.642 29.7093 27.627V25.2272C29.7093 24.7014 29.283 24.275 28.7571 24.275ZM32.5657 35.1807H52.8757C53.4016 35.1807 53.8278 34.7544 53.8278 34.2285C53.8278 33.7027 53.4016 33.2764 52.8757 33.2764H32.5657C32.0399 33.2764 31.6136 33.7027 31.6136 34.2285C31.6136 34.7544 32.0399 35.1807 32.5657 35.1807ZM32.5657 24.6436H52.8757C53.4016 24.6436 53.8278 24.2173 53.8278 23.6914C53.8278 23.1656 53.4016 22.7393 52.8757 22.7393H32.5657C32.0399 22.7393 31.6136 23.1656 31.6136 23.6914C31.6136 24.2173 32.0399 24.6436 32.5657 24.6436ZM32.5657 20.835H52.8757C53.4016 20.835 53.8278 20.4087 53.8278 19.8828C53.8278 19.357 53.4016 18.9307 52.8757 18.9307H32.5657C32.0399 18.9307 31.6136 19.357 31.6136 19.8828C31.6136 20.4087 32.0399 20.835 32.5657 20.835ZM32.5657 38.9893H52.8757C53.4016 38.9893 53.8278 38.563 53.8278 38.0371C53.8278 37.5113 53.4016 37.085 52.8757 37.085H32.5657C32.0399 37.085 31.6136 37.5113 31.6136 38.0371C31.6136 38.563 32.0399 38.9893 32.5657 38.9893Z" fill="#3F3F3F"/>
<script xmlns=""/><script xmlns=""/></svg>