<svg xmlns="http://www.w3.org/2000/svg" width="91" height="74" viewBox="0 0 91 74" fill="none"><script xmlns=""/>
<circle cx="56" cy="37" r="35" fill="#EC4C37" fill-opacity="0.3"/>
<path d="M67.0771 65.1762H64.5202V41.6533C64.5202 41.1435 64.1072 40.7305 63.5974 40.7305C63.0876 40.7305 62.6745 41.1435 62.6745 41.6533V65.1762H57.0624V32.4679H62.6744V37.3467C62.6744 37.8565 63.0875 38.2695 63.5973 38.2695C64.107 38.2695 64.5201 37.8565 64.5201 37.3467V31.545C64.5201 31.0352 64.107 30.6222 63.5973 30.6222H56.1395C55.6297 30.6222 55.2167 31.0352 55.2167 31.545V65.1762H51.5927V47.455C51.5927 46.9452 51.1796 46.5321 50.6698 46.5321H43.2121C42.7023 46.5321 42.2892 46.9452 42.2892 47.455V65.1762H38.6659V39.9972C38.6659 39.4874 38.2528 39.0744 37.743 39.0744H30.2853C29.7755 39.0744 29.3624 39.4874 29.3624 39.9972V65.1762H25.7391V56.1557C25.7391 55.646 25.326 55.2329 24.8162 55.2329H17.3583C16.8486 55.2329 16.4355 55.646 16.4355 56.1557V65.1762H10.8238V60.0619H12.8835C13.3933 60.0619 13.8063 59.6488 13.8063 59.139C13.8063 58.6292 13.3933 58.2162 12.8835 58.2162H10.8238V46.2649H12.8835C13.3933 46.2649 13.8063 45.8518 13.8063 45.342C13.8063 44.8322 13.3933 44.4192 12.8835 44.4192H10.8238V32.4679H12.8835C13.3933 32.4679 13.8063 32.0548 13.8063 31.545C13.8063 31.0352 13.3933 30.6222 12.8835 30.6222H10.8238V18.6709H12.8835C13.3933 18.6709 13.8063 18.2578 13.8063 17.748C13.8063 17.2382 13.3933 16.8252 12.8835 16.8252H10.8238V8.92285C10.8238 8.41307 10.4107 8 9.90096 8H5.92285C5.41307 8 5 8.41307 5 8.92285V24.4883C5 24.9981 5.41307 25.4111 5.92285 25.4111C6.43263 25.4111 6.8457 24.9981 6.8457 24.4883V9.8457H8.97811V66.099C8.97811 66.6088 9.39117 67.0219 9.90096 67.0219H66.1543V69.1543H7.91129C7.32374 69.1543 6.8457 68.6763 6.8457 68.0887V28.7949C6.8457 28.2851 6.43263 27.8721 5.92285 27.8721C5.41307 27.8721 5 28.2851 5 28.7949V68.0887C5 69.694 6.30602 71 7.91129 71H67.0771C67.5869 71 68 70.5869 68 70.0771V66.099C68 65.5893 67.5869 65.1762 67.0771 65.1762ZM44.1349 48.3778H49.747V65.1762H44.1349V48.3778ZM31.208 40.9201H36.82V65.1762H31.208V40.9201ZM18.2811 57.0786H23.8932V65.1762H18.2811V57.0786Z" fill="#3F3F3F"/>
<path d="M21.0883 35.6991C21.7365 35.6991 22.3502 35.4902 22.8617 35.0955L34.2454 26.3393L45.4866 32.8244C46.6826 33.5139 48.2129 33.2624 49.1254 32.2266L57.3841 22.8565C57.7942 23.9719 58.8619 24.7566 60.115 24.7566C60.1556 24.7566 60.1966 24.7562 60.2335 24.7546C61.8379 24.6898 63.0904 23.3321 63.0255 21.7284L62.7769 15.518C62.7455 14.7409 62.4135 14.0225 61.842 13.4951C61.2703 12.9676 60.526 12.696 59.7506 12.7258L53.5413 12.9743C51.9383 13.0391 50.6852 14.3964 50.748 16.0009C50.8054 17.4182 51.8733 18.5617 53.229 18.7636L46.3313 26.5896L42.8475 24.5799C42.4058 24.3253 41.8415 24.4765 41.5868 24.9183C41.3323 25.3597 41.4836 25.924 41.9251 26.1787L46.0632 28.5657C46.4437 28.785 46.9261 28.7062 47.2167 28.3765L55.9937 18.4183C56.2378 18.1412 56.2934 17.745 56.1347 17.4114C55.9759 17.078 55.6345 16.8731 55.2644 16.8859L53.7012 16.9486C53.1124 16.9745 52.616 16.5129 52.5924 15.9273C52.5693 15.3397 53.0286 14.8422 53.6155 14.8184L59.8248 14.5699C60.1101 14.558 60.3811 14.6582 60.5904 14.8514C60.7996 15.0445 60.9212 15.3076 60.9326 15.5919L61.1813 21.8025C61.2051 22.3895 60.7465 22.8866 60.1552 22.9105C60.1422 22.9111 60.1285 22.9109 60.115 22.9107C59.5416 22.9107 59.0743 22.461 59.0511 21.8869L59.0007 20.6355C58.9854 20.2587 58.7425 19.9291 58.3873 19.8028C58.0318 19.6768 57.6357 19.7796 57.3862 20.0623L47.7404 31.0062C47.4063 31.3855 46.8459 31.4774 46.4086 31.2254L34.633 24.432C34.3094 24.2451 33.9051 24.2719 33.6092 24.4999L21.7353 33.6332C21.5485 33.7771 21.3248 33.8533 21.0882 33.8533C20.7536 33.8533 20.4452 33.702 20.2425 33.4386C19.884 32.972 19.9711 32.3011 20.4363 31.943L33.3636 21.9996C33.7073 21.7356 34.1713 21.7045 34.5461 21.9208L38.1957 24.0262C38.637 24.281 39.2015 24.1295 39.4562 23.688C39.7109 23.2465 39.5595 22.6821 39.118 22.4275L35.4688 20.3225C34.4451 19.7308 33.177 19.8149 32.2385 20.5366L19.3109 30.48C18.0394 31.4584 17.8008 33.2901 18.7795 34.5638C19.335 35.2854 20.1766 35.6991 21.0883 35.6991Z" fill="#3F3F3F"/>
<script xmlns=""/><script xmlns=""/></svg>