<svg xmlns="http://www.w3.org/2000/svg" width="91" height="74" viewBox="0 0 91 74" fill="none"><script xmlns=""/>
<circle cx="56" cy="39" r="35" fill="#EC4C37" fill-opacity="0.3"/>
<g clip-path="url(#clip0)">
<path d="M32.0872 70.584C32.592 70.584 33.001 70.1749 33.001 69.6702C33.001 69.1654 32.592 68.7563 32.0872 68.7563H29.8484C29.3436 68.7563 28.9346 69.1654 28.9346 69.6702C28.9346 70.1749 29.3436 70.584 29.8484 70.584H32.0872Z" fill="#3F3F3F"/>
<path d="M58.8216 31.8107C58.3169 31.8107 57.9078 32.2199 57.9078 32.7245V32.9468C57.9078 33.4514 58.3169 33.8606 58.8216 33.8606C59.3264 33.8606 59.7355 33.4514 59.7355 32.9468V32.7245C59.7355 32.2199 59.3263 31.8107 58.8216 31.8107Z" fill="#3F3F3F"/>
<path d="M58.8216 51.2632C59.3264 51.2632 59.7355 50.8542 59.7355 50.3494V50.1272C59.7355 49.6224 59.3264 49.2134 58.8216 49.2134C58.3169 49.2134 57.9078 49.6224 57.9078 50.1272V50.3494C57.9078 50.8541 58.3169 51.2632 58.8216 51.2632Z" fill="#3F3F3F"/>
<path d="M45.7573 42.4086H48.2887C48.7935 42.4086 49.2025 41.9995 49.2025 41.4948C49.2025 40.9901 48.7935 40.581 48.2887 40.581H45.7573C45.2525 40.581 44.8435 40.9901 44.8435 41.4948C44.8435 41.9995 45.2526 42.4086 45.7573 42.4086Z" fill="#3F3F3F"/>
<path d="M62.102 27.6018H50.9357V15.5964C50.9357 13.6133 49.3224 12 47.3394 12H14.5964C12.6134 12 11.0001 13.6133 11.0001 15.5964V56.9587C11.0001 57.4635 11.4091 57.8725 11.9139 57.8725C12.4187 57.8725 12.8277 57.4635 12.8277 56.9587V15.5964C12.8277 14.6211 13.6211 13.8276 14.5964 13.8276H47.3393C48.3146 13.8276 49.1081 14.6211 49.1081 15.5964V27.6018H46.6712V24.6745C46.6712 24.1699 46.2622 23.7607 45.7574 23.7607C45.2526 23.7607 44.8436 24.1699 44.8436 24.6745V27.6018H30.7623V26.6372C30.7623 26.1325 30.3533 25.7234 29.8485 25.7234C29.3437 25.7234 28.9347 26.1325 28.9347 26.6372V56.4369C28.9347 56.9417 29.3437 57.3507 29.8485 57.3507C30.3533 57.3507 30.7623 56.9417 30.7623 56.4369V55.4721H44.8436V64.9818H17.0922V18.0921H44.8437V21.021C44.8437 21.5257 45.2528 21.9348 45.7576 21.9348C46.2623 21.9348 46.6714 21.5257 46.6714 21.021V17.4312C46.6714 16.7879 46.1481 16.2644 45.5047 16.2644H16.4312C15.7879 16.2644 15.2646 16.7878 15.2646 17.4312V65.6427C15.2646 66.2859 15.7879 66.8093 16.4312 66.8093H45.5046C46.1479 66.8093 46.6712 66.2859 46.6712 65.6427V55.472H49.1081V70.7862C49.1081 71.7616 48.3146 72.5551 47.3393 72.5551H14.5964C13.6211 72.5551 12.8276 71.7616 12.8276 70.7862V60.6122C12.8276 60.1075 12.4186 59.6984 11.9138 59.6984C11.409 59.6984 11 60.1075 11 60.6122V70.7862C11 72.7693 12.6133 74.3828 14.5964 74.3828H47.3393C49.3223 74.3828 50.9357 72.7695 50.9357 70.7862V55.472H55.2472C55.7519 55.472 56.161 55.063 56.161 54.5582C56.161 54.0534 55.7519 53.6444 55.2472 53.6444H30.7623V51.2076H54.8195C55.3243 51.2076 55.7333 50.7985 55.7333 50.2937C55.7333 48.5908 57.1188 47.2053 58.8217 47.2053C59.3265 47.2053 59.7356 46.7963 59.7356 46.2915V36.7822C59.7356 36.2775 59.3265 35.8683 58.8217 35.8683C57.1188 35.8683 55.7333 34.4829 55.7333 32.78C55.7333 32.2754 55.3243 31.8662 54.8195 31.8662H30.7623V29.4294H62.102C62.1407 29.4294 62.1724 29.461 62.1724 29.4998V53.574C62.1724 53.6127 62.1407 53.6444 62.102 53.6444H58.9009C58.3962 53.6444 57.9871 54.0534 57.9871 54.5582C57.9871 55.063 58.3962 55.472 58.9009 55.472H62.102C63.1486 55.472 64 54.6206 64 53.574V29.4998C64 28.4533 63.1486 27.6018 62.102 27.6018ZM53.9909 33.6938C54.3644 35.6732 55.9285 37.2372 57.9078 37.6108V45.4629C55.9285 45.8364 54.3644 47.4005 53.9909 49.3798H30.7623V33.6938H53.9909Z" fill="#3F3F3F"/>
<path d="M20.3621 22.2332H23.5149C24.0197 22.2332 24.4288 21.8241 24.4288 21.3194C24.4288 20.8147 24.0197 20.4056 23.5149 20.4056H20.3621C19.8573 20.4056 19.4482 20.8147 19.4482 21.3194C19.4482 21.8241 19.8573 22.2332 20.3621 22.2332Z" fill="#3F3F3F"/>
<path d="M20.3621 26.073H26.4391C26.9439 26.073 27.3529 25.6639 27.3529 25.1592C27.3529 24.6546 26.9439 24.2454 26.4391 24.2454H20.3621C19.8573 24.2454 19.4482 24.6546 19.4482 25.1592C19.4482 25.6639 19.8573 26.073 20.3621 26.073Z" fill="#3F3F3F"/>
<path d="M39.7453 40.8034C39.6277 40.7618 39.5081 40.7187 39.3882 40.6744V38.3833C39.9553 38.4662 40.3833 38.6702 40.3981 38.6774C40.7584 38.8566 41.1963 38.7106 41.3769 38.3505C41.5578 37.9896 41.4121 37.5504 41.0512 37.3693C41.0077 37.3475 40.3138 37.0058 39.3882 36.9115V36.5927C39.3882 36.189 39.0608 35.8616 38.6571 35.8616C38.2535 35.8616 37.9261 36.189 37.9261 36.5927V37.014C37.8881 37.0241 37.8499 37.0342 37.8118 37.0457C36.9657 37.3006 36.3339 38.0226 36.1629 38.93C36.0059 39.7634 36.2771 40.5702 36.8704 41.0356C37.1456 41.2514 37.4803 41.4494 37.9261 41.6546V44.5925C37.6242 44.5456 37.3903 44.438 37.0246 44.1986C36.6868 43.9776 36.2336 44.0721 36.0126 44.41C35.7915 44.7479 35.8862 45.201 36.224 45.422C36.8685 45.8437 37.3389 46.0076 37.9261 46.0635V46.4813C37.9261 46.885 38.2535 47.2124 38.6571 47.2124C39.0608 47.2124 39.3882 46.885 39.3882 46.4813V45.9943C40.5613 45.6881 41.3131 44.6826 41.4798 43.6908C41.6957 42.4067 40.9987 41.2464 39.7453 40.8034ZM37.7729 39.8852C37.6131 39.7598 37.5451 39.4912 37.5998 39.2007C37.6371 39.0031 37.742 38.7785 37.9262 38.6182V39.9946C37.8719 39.9587 37.8201 39.9222 37.7729 39.8852ZM40.0381 43.4483C39.9768 43.8125 39.7564 44.1946 39.3883 44.4217V42.2349C40.1007 42.5552 40.0827 43.1826 40.0381 43.4483Z" fill="#3F3F3F"/>
</g>
<defs>
<clipPath id="clip0">
<rect width="74" height="74" fill="white"/>
</clipPath>
</defs>
<script xmlns=""/><script xmlns=""/></svg>