<svg xmlns="http://www.w3.org/2000/svg" width="91" height="74" viewBox="0 0 91 74" fill="none"><script xmlns=""/>
<circle cx="56" cy="37" r="35" fill="#EC4C37" fill-opacity="0.3"/>
<path d="M69.6572 17.9377H63.0459C61.754 17.9377 60.7031 18.9886 60.7031 20.2805V21.3213H57.2433C56.1175 21.3213 55.0286 20.9895 54.0941 20.3618L50.598 18.0133C46.4691 15.2397 41.0217 15.3426 37.0003 18.2557C33.3406 15.6051 28.4229 15.2629 24.4339 17.3933C23.9334 17.6605 23.7443 18.283 24.0116 18.7835C24.2789 19.2841 24.9012 19.473 25.4019 19.2059C28.5058 17.5482 32.2902 17.7006 35.2481 19.5507L26.0095 26.3941C25.2725 26.94 24.8442 27.779 24.8339 28.6961C24.8238 29.613 25.2336 30.4612 25.9582 31.0233C28.1002 32.6846 31.0367 32.9473 33.4396 31.6928L40.2632 28.13C40.6258 29.0254 41.2574 30.3037 42.279 31.5822C42.946 32.4171 43.8355 33.3144 44.9882 34.097C44.9908 34.0989 54.7461 40.7938 54.7461 40.7938C55.4644 41.2648 55.6606 42.3168 55.1602 43.0152C54.6892 43.7336 53.6369 43.9297 52.9388 43.4294L40.1586 34.6664C39.6908 34.3456 39.0512 34.4649 38.7303 34.9328C38.4094 35.4008 38.5287 36.0402 38.9966 36.3611L51.6029 45.005C52.3215 45.476 52.5179 46.5282 52.0175 47.2267C51.5191 47.9533 50.5229 48.1391 49.7961 47.6408L37.1895 38.9967C36.7216 38.6758 36.0821 38.7952 35.7612 39.2631C35.4403 39.731 35.5595 40.3705 36.0275 40.6914L47.3127 48.4294C48.0312 48.9004 48.2273 49.9525 47.7271 50.6509C47.2561 51.3692 46.2039 51.5654 45.5057 51.065C45.5057 51.065 34.134 43.2738 34.0893 43.252C34.0279 42.1599 33.4817 41.1063 32.5118 40.4413C31.1311 39.4945 29.3245 39.6293 28.0997 40.6555C27.8266 40.1234 27.4242 39.6642 26.917 39.3165C25.3208 38.1729 22.9156 38.6212 21.839 40.2634L20.2789 42.5386C20.0279 42.8888 19.8537 43.2779 19.7518 43.6834C18.4864 43.0876 17.1022 42.7755 15.6946 42.7755H13.2969V23.3761H16.7567C18.2921 23.3761 19.7773 22.9235 21.0516 22.0674L22.0456 21.3997C22.5166 21.0833 22.6419 20.4449 22.3254 19.974C22.0091 19.5028 21.3707 19.3776 20.8997 19.694L19.9058 20.3617C18.9713 20.9895 17.8825 21.3212 16.7566 21.3212H13.2969V20.2803C13.2969 18.9885 12.246 17.9375 10.9541 17.9375H4.34281C3.05096 17.9377 2 18.9886 2 20.2805V33.2915C2 33.8588 2.46006 34.3189 3.02744 34.3189C3.59482 34.3189 4.05488 33.8588 4.05488 33.2915V20.2805C4.05488 20.1217 4.18408 19.9924 4.34295 19.9924H10.9543C11.113 19.9924 11.2423 20.1216 11.2423 20.2805V45.9924C11.2423 46.1511 11.1131 46.2804 10.9543 46.2804H4.34281C4.18408 46.2804 4.05475 46.1512 4.05475 45.9924V37.4009C4.05475 36.8336 3.59469 36.3735 3.0273 36.3735C2.45992 36.3735 2 36.8336 2 37.4009V45.9924C2 47.2842 3.05096 48.3352 4.34281 48.3352H10.9541C12.246 48.3352 13.2969 47.2842 13.2969 45.9924V44.8297H15.6946C17.0715 44.8297 18.4201 45.2096 19.5946 45.9282L19.9967 46.1743C20.2641 46.7496 20.6781 47.257 21.2258 47.616C22.072 48.1919 23.057 48.3745 24.0207 48.1793C24.1833 49.1622 24.7351 50.0221 25.5561 50.5851C26.4024 51.161 27.3873 51.3437 28.351 51.1484C28.5135 52.1313 29.0653 52.9914 29.8864 53.5544C30.7332 54.1305 31.7188 54.3132 32.683 54.1173C32.842 55.0606 33.3672 55.9411 34.2165 56.5235C35.8384 57.6408 38.0939 57.2578 39.2527 55.6346L39.694 55.9373C41.2976 57.0826 43.6932 56.6315 44.772 54.9904C45.1315 54.4662 45.3429 53.8712 45.3978 53.2551C46.8787 53.6814 48.5099 53.1382 49.4216 51.8123C49.82 51.2311 50.0264 50.5745 50.0562 49.9175C51.4435 50.1788 52.925 49.5619 53.7121 48.3879C54.2028 47.6722 54.4188 46.8247 54.3348 45.9712C55.5251 45.226 56.9009 44.8289 58.3053 44.8294H60.7029V45.9921C60.7029 47.2839 61.7539 48.3349 63.0457 48.3349H69.6571C70.9489 48.3349 71.9999 47.2839 71.9999 45.9921V20.2805C72 18.9886 70.949 17.9377 69.6572 17.9377ZM24.6092 45.5071C24.111 46.2338 23.1144 46.4197 22.3878 45.9214C21.6611 45.4232 21.4753 44.4267 21.9735 43.7L23.5336 41.4249C24.0056 40.7069 25.0535 40.5097 25.755 41.0107C26.4815 41.5089 26.6675 42.5055 26.1691 43.232L24.6092 45.5071ZM28.9395 48.4764C28.4413 49.2031 27.4447 49.3889 26.7181 48.8905C25.9997 48.4194 25.8036 47.3675 26.3039 46.6691L29.1286 42.5496C29.6005 41.8317 30.6485 41.6344 31.35 42.1354C32.0766 42.6336 32.2624 43.6301 31.7641 44.3568L28.9395 48.4764ZM33.2698 51.4455C32.7716 52.1722 31.7752 52.3581 31.0484 51.8598C30.33 51.3888 30.134 50.3366 30.6342 49.6384L32.6621 46.6809C33.1094 46.0004 34.0737 45.7888 34.7705 46.195L34.9952 46.3491C35.6204 46.8516 35.7708 47.8277 35.2977 48.488L33.2698 51.4455ZM35.3785 54.8289C34.6519 54.3307 34.4661 53.3341 34.9644 52.6075L36.9896 49.6541C37.4616 48.9362 38.5092 48.7389 39.2107 49.2397L39.2112 49.24C39.9295 49.7111 40.1254 50.7629 39.6251 51.4612L37.5999 54.4148C37.1017 55.1413 36.1053 55.3272 35.3785 54.8289ZM43.0774 53.8285C42.6064 54.5468 41.5544 54.743 40.856 54.2426L40.4162 53.941L41.3198 52.6232C41.6382 52.1589 41.8404 51.639 41.9208 51.0981L42.6632 51.6071C43.3818 52.0783 43.5778 53.1302 43.0774 53.8285ZM69.9453 45.9924C69.9453 46.1511 69.8161 46.2804 69.6572 46.2804H63.0459C62.8871 46.2804 62.7578 46.1512 62.7578 45.9924V31.333C62.7578 30.7656 62.2978 30.3055 61.7304 30.3055C61.163 30.3055 60.7029 30.7654 60.7029 31.333V42.7748H58.3053C58.0113 42.7748 57.7185 42.7888 57.4274 42.8157C57.7144 41.4183 57.1001 39.8943 55.9078 39.0987L51.7185 36.2261C51.9386 36.2354 52.1612 36.2417 52.3892 36.2417C52.9566 36.2417 53.4166 35.7816 53.4166 35.2143C53.4166 34.6469 52.9566 34.1868 52.3892 34.1868C50.011 34.1868 47.9519 33.6069 46.2317 32.4639L46.2025 32.4439C46.1994 32.4417 46.1958 32.4407 46.1927 32.4387C45.3584 31.8786 44.6033 31.1869 43.9331 30.3601C42.3621 28.4218 41.847 26.4369 41.8426 26.4198C41.7668 26.1139 41.5549 25.8596 41.2675 25.7299C40.9802 25.6005 40.6492 25.61 40.3697 25.7558L32.4881 29.8709C30.7953 30.7546 28.7262 30.5698 27.2172 29.3992C27.0052 29.2347 26.8853 28.9866 26.8883 28.7183C26.8912 28.4501 27.0167 28.2046 27.2323 28.0449L38.1204 19.9797C41.4543 17.5101 46.0083 17.4053 49.4521 19.7188L52.9481 22.0674C54.2225 22.9235 55.7076 23.3761 57.243 23.3761H60.7028V27.2233C60.7028 27.7907 61.1629 28.2508 61.7302 28.2508C62.2976 28.2508 62.7577 27.7908 62.7577 27.2233V20.2803C62.7577 20.1216 62.8869 19.9923 63.0457 19.9923H69.6571C69.8158 19.9923 69.9451 20.1215 69.9451 20.2803V45.9924H69.9453Z" fill="#3F3F3F"/>
<path d="M8.67573 42.9381V41.2464C8.67573 40.6791 8.21581 40.219 7.64829 40.219C7.08077 40.219 6.62085 40.6789 6.62085 41.2464V42.9381C6.62085 43.5054 7.08077 43.9655 7.64829 43.9655C8.21581 43.9655 8.67573 43.5054 8.67573 42.9381Z" fill="#3F3F3F"/>
<path d="M66.3514 40.219C65.784 40.219 65.324 40.6789 65.324 41.2464V42.9381C65.324 43.5054 65.784 43.9655 66.3514 43.9655C66.9188 43.9655 67.3789 43.5054 67.3789 42.9381V41.2464C67.3789 40.6789 66.9189 40.219 66.3514 40.219Z" fill="#3F3F3F"/>
<script xmlns=""/><script xmlns=""/></svg>