<svg xmlns="http://www.w3.org/2000/svg" width="91" height="74" viewBox="0 0 91 74" fill="none"><script xmlns=""/>
<circle cx="56" cy="37" r="35" fill="#EC4C37" fill-opacity="0.3"/>
<path d="M64.1377 41.7295H63.2249V33.5071C63.2249 32.2053 62.577 31.0528 61.5875 30.3524V29.2329C61.5875 27.6089 60.2664 26.2877 58.6424 26.2877H57.9608L60.5686 22.4609C61.4428 21.1783 61.1104 19.4234 59.8277 18.5492L42.1316 6.48976C41.5103 6.06621 40.7614 5.9099 40.0222 6.05013C39.2834 6.19012 38.6433 6.60937 38.2199 7.23081L22.9459 29.6439H18.6956L19.721 19.2632C19.7326 19.1462 19.8086 19.0448 19.9146 19.0049C21.2358 18.5068 22.3807 17.5765 23.1384 16.3856C23.1981 16.2918 23.3107 16.2382 23.4272 16.25L30.0938 16.9086C30.5717 16.955 30.997 16.6068 31.0441 16.1291C31.0913 15.6513 30.7424 15.2259 30.2646 15.1787L23.5981 14.5201C22.8243 14.4443 22.0863 14.8009 21.6717 15.4524C21.1146 16.328 20.2727 17.0119 19.3014 17.3781C18.5702 17.6538 18.0682 18.3105 17.991 19.0922L16.9487 29.6438H15.8404L17.4621 13.2257C17.5205 12.6348 18.0479 12.2006 18.6396 12.2599L32.1113 13.5907C32.589 13.6368 33.0145 13.2889 33.0617 12.8111C33.1089 12.3334 32.7599 11.9079 32.2821 11.8607L18.8104 10.5299C17.2659 10.3776 15.8847 11.51 15.7321 13.0548L14.4248 26.2877H12.1987C10.5748 26.2877 9.25355 27.6089 9.25355 29.2329V29.9966C7.92501 30.6082 7 31.9512 7 33.5071V63.1367C7 65.267 8.73302 67 10.8634 67H59.3616C61.4919 67 63.2249 65.267 63.2249 63.1367V54.9144H64.1377C65.2152 54.9144 66.0918 54.0379 66.0918 52.9605V43.6836C66.0919 42.6061 65.2152 41.7295 64.1377 41.7295ZM58.6424 28.0262C59.3079 28.0261 59.8491 28.5675 59.8491 29.233V29.6758C59.6893 29.6556 59.5269 29.644 59.3616 29.644H55.6736L56.776 28.0262H58.6424ZM39.6563 8.20967C39.8184 7.97199 40.0632 7.81162 40.3458 7.75801C40.4134 7.74526 40.4812 7.73883 40.5485 7.73883C40.7626 7.73883 40.9718 7.80293 41.1526 7.92612L58.8487 19.9855C59.3393 20.32 59.4666 20.9912 59.1323 21.4818L53.5701 29.6437H52.2352L54.9622 25.6421C55.4045 24.9931 55.4409 24.1673 55.0571 23.4866C54.5469 22.5823 54.3401 21.5176 54.4747 20.4883C54.5748 19.7226 54.2379 18.9751 53.5954 18.5374L44.4219 12.2858C43.7793 11.848 42.9604 11.8078 42.2844 12.1811C41.3759 12.6827 40.3092 12.8796 39.2811 12.7357C38.5186 12.6287 37.7452 12.973 37.3095 13.6122L26.3844 29.6438H25.0496L39.6563 8.20967ZM40.0391 22.9701C36.2539 22.9701 33.1467 25.9216 32.8936 29.6438H28.4879L38.7458 14.5912C38.7459 14.5912 38.7459 14.5912 38.7459 14.5912C38.8041 14.5055 38.9008 14.4545 39 14.4545C39.0132 14.4545 39.0264 14.4555 39.0397 14.4573C40.4381 14.6529 41.8887 14.3853 43.1244 13.703C43.2216 13.6492 43.3465 13.6569 43.4428 13.7224L52.6165 19.9741C52.7125 20.0396 52.7653 20.153 52.751 20.2631C52.5679 21.6629 52.8493 23.111 53.543 24.3407C53.5987 24.4395 53.5919 24.566 53.5259 24.6631L50.1318 29.6437H47.1851C46.9317 25.9216 43.8246 22.9701 40.0391 22.9701ZM45.4419 29.6439H34.6365C34.8855 26.8812 37.2128 24.7086 40.0391 24.7086C42.8656 24.7085 45.1931 26.8812 45.4419 29.6439ZM10.9919 29.2329C10.9919 28.5674 11.5332 28.026 12.1987 28.026H14.2532L14.0934 29.6438H10.9919V29.2329ZM8.73838 33.5071C8.73838 32.3354 9.69163 31.3822 10.8634 31.3822H59.3616C60.5334 31.3822 61.4865 32.3354 61.4865 33.5071V35.9189H8.73838V33.5071ZM61.4865 63.1367C61.4865 64.3084 60.5334 65.2616 59.3616 65.2616H10.8634C9.69163 65.2616 8.73838 64.3084 8.73838 63.1367V60.7249H13.4256C13.9058 60.7249 14.2947 60.3357 14.2947 59.8557C14.2947 59.3757 13.9056 58.9866 13.4256 58.9866H8.73838V37.6573H61.4865V41.7295H53.2222H53.2221C50.6181 41.7295 48.3625 43.2474 47.2921 45.4445C47.2885 45.4519 47.2844 45.459 47.2808 45.4664C47.2717 45.4851 47.2638 45.5045 47.255 45.5233C47.1275 45.7942 47.0167 46.0745 46.9265 46.3638C46.9263 46.3646 46.9261 46.3653 46.9258 46.3661C46.7334 46.9844 46.6297 47.6412 46.6297 48.322C46.6297 51.9571 49.587 54.9144 53.2219 54.9144H53.2221H61.4864V58.9866H18.9912C18.511 58.9866 18.122 59.3757 18.122 59.8557C18.122 60.3357 18.5111 60.7249 18.9912 60.7249H61.4865V63.1367ZM64.3535 52.9603C64.3535 53.0792 64.2568 53.176 64.1377 53.176H53.2223C51.3822 53.176 49.7778 52.1467 48.9549 50.6338C48.9175 50.565 48.8818 50.4952 48.8476 50.4246C48.7793 50.2831 48.7177 50.1379 48.6633 49.9892C48.4724 49.469 48.3683 48.9074 48.3683 48.322C48.3683 47.7365 48.4725 47.1749 48.6633 46.6547C48.7178 46.5061 48.7794 46.3609 48.8476 46.2194C48.8818 46.1487 48.9175 46.0789 48.9549 46.0102C49.7778 44.4972 51.3822 43.4679 53.2223 43.4679H64.1377C64.2566 43.4679 64.3535 43.5647 64.3535 43.6836V52.9603Z" fill="#3F3F3F"/>
<path d="M53.426 44.7953C51.4814 44.7953 49.8994 46.3774 49.8994 48.3219C49.8994 50.2664 51.4814 51.8484 53.426 51.8484C55.3706 51.8484 56.9525 50.2664 56.9525 48.3219C56.9525 46.3774 55.3706 44.7953 53.426 44.7953ZM53.426 50.11C52.44 50.11 51.6378 49.3078 51.6378 48.3219C51.6378 47.336 52.44 46.5337 53.426 46.5337C54.412 46.5337 55.2142 47.3359 55.2142 48.3219C55.2142 49.3079 54.412 50.11 53.426 50.11Z" fill="#3F3F3F"/>
<script xmlns=""/><script xmlns=""/></svg>