<svg
  viewBox="0 0 16 14"
  xmlns="http://www.w3.org/2000/svg"
>
  <path
    d="M9.22128 1.48965C9.81272 1.00883 10.4397 0.619263 11.1354 0.619263C13.2314 0.619263 14.9672 2.39171 14.9672 4.60672C14.9672 4.88754 14.8939 5.31184 14.7964 5.7395C14.7014 6.15572 14.5934 6.53391 14.5427 6.70544C14.5338 6.73551 14.5219 6.7633 14.5065 6.79032C13.6182 8.34803 12.1979 9.99342 10.842 11.2513C10.1655 11.8789 9.51623 12.3995 8.97039 12.7595C8.69713 12.9398 8.45842 13.0741 8.26153 13.1616C8.05496 13.2534 7.93448 13.2755 7.88498 13.2755C7.68498 13.2755 7.41163 13.2077 7.06915 13.0509C6.7322 12.8967 6.35862 12.6705 5.96726 12.389C5.18448 11.826 4.36729 11.0689 3.68041 10.3105C3.2406 9.82481 2.51272 8.95615 1.89741 7.91742C1.27679 6.86972 0.802734 5.70212 0.802734 4.60672C0.802734 2.39171 2.53858 0.619263 4.63451 0.619263C5.33028 0.619263 5.95722 1.00884 6.54867 1.48966C7.35439 2.14468 8.41557 2.14465 9.22128 1.48965Z"
    stroke="#6D6D6D"
  ></path>
</svg>