<svg 
  viewBox="0 0 21 21" 
  xmlns="http://www.w3.org/2000/svg"
>
  <path 
    d="M9 0.5C4.57452 0.5 0.5 3.76189 0.5 9C0.5 13.1891 3.5 17.5 8.32436 17.5C9.73622 17.5 11.2291 17.4102 12 17C13.0556 16.6481 12.7413 14.1293 12 14.5C11.0466 14.9767 9.12248 15.0351 8.41858 15.0855C8.35522 15.09 8.29183 15.0897 8.22874 15.0824C4.94698 14.7019 3 12.3968 3 9C3 5.33719 5.33719 3 9 3C12.6626 3 15.5 5.33719 15.5 9C15.5 10.3351 14.6806 11.9576 14 13C13.4196 13.8889 13.761 15.2378 14.5 16L18.5 20C18.6371 20.1371 19.363 20.6366 20 20C20.637 19.3634 20.7742 18.774 20.5 18.5L17.5 15.5L17.4983 15.4983C16.9819 14.9819 16.1259 14.126 16.5 13.5C17.2181 12.2983 18 10.4988 18 9C18 3.5 13.4254 0.5 9 0.5Z" 
  ></path>
</svg>