<svg viewBox="0 0 14 14" xmlns="http://www.w3.org/2000/svg">
  <path fill-rule="evenodd" clip-rule="evenodd" d="M9.89292 0.000488281H3.60505C1.35899 0.000488281 0 1.35948 0 3.60554V9.36942C0 11.6155 1.35899 13.0164 3.60505 13.0164H9.36893C11.615 13.0164 13.0159 11.6155 13.0159 9.36942V3.60554C13.0159 1.35948 12.139 0.000488281 9.89292 0.000488281ZM9.89291 3.60537C10.4717 3.60537 10.9409 3.13617 10.9409 2.55739C10.9409 1.97861 10.4717 1.50941 9.89291 1.50941C9.31413 1.50941 8.84493 1.97861 8.84493 2.55739C8.84493 3.13617 9.31413 3.60537 9.89291 3.60537ZM3.25399 6.50815C3.25399 4.71114 4.71096 3.25417 6.50797 3.25417C8.30497 3.25417 9.76194 4.71114 9.76194 6.50815C9.76194 8.30515 8.30497 9.76212 6.50797 9.76212C4.71096 9.76212 3.25399 8.30515 3.25399 6.50815ZM4.47423 6.50815C4.47423 7.62914 5.38697 8.54188 6.50797 8.54188C7.62896 8.54188 8.5417 7.62914 8.5417 6.50815C8.5417 5.38634 7.62896 4.47441 6.50797 4.47441C5.38697 4.47441 4.47423 5.38634 4.47423 6.50815Z" />
</svg>